<svg width="510" height="292" viewBox="0 0 510 292" fill="none" xmlns="http://www.w3.org/2000/svg">
<path d="M19.6011 257.404C19.6011 269.29 25.4911 274.702 50.3062 274.702C65.4657 274.702 81.2045 271.996 92.5017 269.773L95.9777 286.105C82.5563 289.198 65.5623 291.517 49.6303 291.517C13.518 291.517 0 279.534 0 257.404C0 235.273 13.518 223.387 49.6303 223.387C65.5623 223.387 82.5563 225.706 95.9777 228.798L92.5017 245.13C81.2045 242.908 65.4657 240.202 50.3062 240.202C25.4911 240.202 19.6011 245.614 19.6011 257.404Z" fill="white"/>
<path d="M123.087 273.446H188.456V290.261H103.486V224.353H123.087V273.446Z" fill="white"/>
<path d="M246.998 291.614C209.244 291.614 192.926 280.887 192.926 257.307C192.926 233.727 209.244 223 246.998 223C284.751 223 301.07 233.727 301.07 257.307C301.07 280.887 284.751 291.614 246.998 291.614ZM246.998 274.799C273.358 274.799 281.082 270.063 281.082 257.307C281.082 244.551 273.358 239.815 246.998 239.815C220.541 239.815 212.527 244.551 212.527 257.307C212.527 270.063 220.541 274.799 246.998 274.799Z" fill="white"/>
<path d="M385.55 290.261L377.633 277.505H328.968L320.953 290.261H297.394L340.361 224.353H366.432L409.303 290.261H385.55ZM337.465 263.878H369.039L353.3 238.559L337.465 263.878Z" fill="white"/>
<path d="M433.031 290.261H413.43V224.353H433.031V257.307L444.618 247.933L480.248 224.353H507.187L467.502 252.282L509.118 290.261H483.145L452.246 262.042L433.031 274.702V290.261Z" fill="white"/>
<path d="M235.502 1.50553C211.838 16.3457 191.634 45.0738 183.708 68.8675C183.293 70.1129 184.312 71.3566 185.778 71.4841C199.858 72.7089 211.483 76.9235 220.68 83.6047C221.668 84.3223 223.128 84.2612 223.993 83.429L225.595 81.887C226.446 81.0677 226.409 79.7989 225.477 79.0513C219.436 74.2055 211.896 70.0286 202.471 65.9059C201.369 65.4241 200.861 64.2822 201.321 63.2772C207.689 49.3733 217.098 29.9209 228.93 28.742C233.137 28.3228 237.601 30.2174 242.401 35.4879C243.466 36.6573 245.578 36.5828 246.576 35.3682C262.913 15.4795 278.279 45.0699 287.714 63.3101C288.224 64.2956 287.78 65.4596 286.704 65.9826C277.432 70.4883 269.914 74.7357 263.809 79.6518C262.888 80.3936 262.842 81.6467 263.671 82.4683L264.985 83.7705C265.847 84.6244 267.33 84.6935 268.327 83.9625C277.373 77.329 288.912 72.8608 303.091 71.5299C304.579 71.3903 305.591 70.1056 305.134 68.8504C296.184 44.2839 275.987 14.694 250.941 0L339 29.0977V91.8161C339 118.388 328.597 144.046 311.266 164.366C308.588 131.578 300.731 106.232 290.209 88.473C289.505 87.2852 288.775 86.1095 288.019 84.9468C287.439 84.0548 286.189 83.6913 285.134 84.1296C283.644 84.7486 282.189 85.4328 280.776 86.1796C279.672 86.7635 279.384 88.0396 280.06 89.0056C288.988 101.761 294.503 119.3 294.503 138.662C294.503 160.103 287.742 179.31 277.069 192.258C267.306 197.628 256.704 201.7 245.5 204.174C232.971 201.408 221.195 196.642 210.502 190.299C200.729 177.412 194.617 159.047 194.617 138.662C194.617 119.217 200.179 101.612 209.174 88.8436C209.857 87.8745 209.566 86.5906 208.453 86.0089C207.01 85.2553 205.524 84.5683 204 83.9508C202.949 83.525 201.713 83.8901 201.137 84.7742C200.371 85.9503 199.631 87.1396 198.918 88.3416C188.61 105.728 180.86 130.429 178.032 162.326C161.725 142.342 152 117.506 152 91.8161V29.0977L235.502 1.50553Z" fill="white"/>
</svg>
