<svg width="96" height="16" viewBox="0 0 96 16" fill="none" xmlns="http://www.w3.org/2000/svg">
<path d="M6.14945 0.110873C4.4067 1.20376 2.91884 3.31941 2.33509 5.07167C2.30454 5.16339 2.37956 5.25498 2.48752 5.26437C3.52445 5.35456 4.38054 5.66495 5.05789 6.15697C5.13064 6.20982 5.23818 6.20532 5.30183 6.14404L5.41979 6.03048C5.48246 5.97014 5.47979 5.8767 5.41115 5.82164C4.96622 5.46478 4.41101 5.15718 3.71685 4.85357C3.63572 4.81808 3.59832 4.73399 3.63222 4.65998C4.10119 3.63604 4.79404 2.20349 5.66546 2.11667C5.97521 2.0858 6.30402 2.22532 6.65751 2.61347C6.73594 2.69959 6.89145 2.6941 6.96493 2.60465C8.16809 1.13997 9.29964 3.31912 9.99454 4.6624C10.0321 4.73498 9.99938 4.8207 9.92011 4.85922C9.23728 5.19103 8.68362 5.50383 8.23405 5.86587C8.16621 5.92049 8.16281 6.01278 8.22388 6.07329L8.32066 6.16919C8.38413 6.23207 8.49335 6.23716 8.56676 6.18333C9.23294 5.69481 10.0827 5.36575 11.1269 5.26774C11.2365 5.25746 11.3111 5.16285 11.2774 5.07041C10.6182 3.26124 9.13086 1.08212 7.28642 0L13.7714 2.14287V6.7617C13.7714 8.71854 13.0053 10.6081 11.7289 12.1046C11.5317 9.68992 10.9531 7.8233 10.1783 6.51549C10.1264 6.42802 10.0726 6.34144 10.017 6.25581C9.97425 6.19012 9.88221 6.16335 9.8045 6.19563C9.69475 6.24122 9.58764 6.2916 9.4836 6.3466C9.40225 6.3896 9.38105 6.48358 9.43085 6.55472C10.0883 7.49407 10.4945 8.78571 10.4945 10.2116C10.4945 11.7906 9.99654 13.2051 9.21058 14.1586C8.49158 14.5541 7.71079 14.854 6.8857 15.0361C5.96304 14.8324 5.09576 14.4815 4.30834 14.0143C3.58856 13.0653 3.13851 11.7128 3.13851 10.2116C3.13851 8.77962 3.54806 7.48312 4.2105 6.54279C4.26078 6.47142 4.23942 6.37687 4.15741 6.33403C4.05117 6.27853 3.94171 6.22794 3.82948 6.18247C3.75207 6.1511 3.66108 6.17799 3.61867 6.2431C3.56224 6.32971 3.50775 6.4173 3.45524 6.50582C2.69613 7.78625 2.12537 9.60528 1.91712 11.9543C0.716152 10.4826 0 8.65361 0 6.7617V2.14287L6.14945 0.110873Z" fill="white"/>
<path d="M19.8212 7.5331C19.8212 9.38255 20.7376 10.2246 24.5986 10.2246C26.9573 10.2246 29.4061 9.80356 31.1638 9.45773L31.7046 11.9988C29.6164 12.48 26.9723 12.8409 24.4934 12.8409C18.8747 12.8409 16.7714 10.9764 16.7714 7.5331C16.7714 4.08983 18.8747 2.24038 24.4934 2.24038C26.9723 2.24038 29.6164 2.60125 31.7046 3.08241L31.1638 5.62351C29.4061 5.27768 26.9573 4.85667 24.5986 4.85667C20.7376 4.85667 19.8212 5.69869 19.8212 7.5331Z" fill="white"/>
<path d="M35.9226 10.0291H46.0934V12.6454H32.8728V2.39074H35.9226V10.0291Z" fill="white"/>
<path d="M55.2019 12.8559C49.3277 12.8559 46.7888 11.1869 46.7888 7.51807C46.7888 3.84925 49.3277 2.18024 55.2019 2.18024C61.076 2.18024 63.6149 3.84925 63.6149 7.51807C63.6149 11.1869 61.076 12.8559 55.2019 12.8559ZM55.2019 10.2396C59.3032 10.2396 60.5051 9.50284 60.5051 7.51807C60.5051 5.5333 59.3032 4.79653 55.2019 4.79653C51.0855 4.79653 49.8385 5.5333 49.8385 7.51807C49.8385 9.50284 51.0855 10.2396 55.2019 10.2396Z" fill="white"/>
<path d="M76.7593 12.6454L75.5274 10.6606H67.9556L66.7087 12.6454H63.043L69.7284 2.39074H73.7847L80.4551 12.6454H76.7593ZM69.2777 8.54053H74.1903L71.7415 4.60106L69.2777 8.54053Z" fill="white"/>
<path d="M84.1469 12.6454H81.0972V2.39074H84.1469V7.51807L85.9497 6.05956L91.4934 2.39074H95.6849L89.5103 6.73619L95.9853 12.6454H91.9441L87.1366 8.25484L84.1469 10.2246V12.6454Z" fill="white"/>
</svg>
