<svg width="10" height="6" viewBox="0 0 10 6" fill="none" xmlns="http://www.w3.org/2000/svg">
<path d="M0.540766 1.53345L4.49899 5.4608C4.63187 5.5926 4.81207 5.66665 4.99996 5.66665C5.18786 5.66665 5.36806 5.5926 5.50094 5.4608L9.45916 1.53345C9.55823 1.43513 9.6257 1.30986 9.65302 1.1735C9.68035 1.03714 9.66632 0.8958 9.6127 0.76735C9.55908 0.638899 9.46828 0.529105 9.35178 0.451849C9.23528 0.374593 9.09831 0.333343 8.95819 0.333313H1.04174C0.901618 0.333343 0.764648 0.374593 0.648147 0.451849C0.531647 0.529105 0.440848 0.638899 0.387228 0.76735C0.333609 0.8958 0.319576 1.03714 0.346905 1.1735C0.374234 1.30986 0.441697 1.43513 0.540766 1.53345Z" fill="white"/>
</svg>
