<svg width="16" height="16" viewBox="0 0 16 16" fill="none" xmlns="http://www.w3.org/2000/svg">
<g clip-path="url(#clip0_420_690)">
<path d="M15.9638 0.68605C16.0001 0.595186 16.009 0.495646 15.9894 0.39977C15.9697 0.303893 15.9223 0.215897 15.8531 0.146691C15.7839 0.0774845 15.6959 0.030111 15.6001 0.0104435C15.5042 -0.00922396 15.4046 -0.000320453 15.3138 0.0360502L0.766773 5.85505H0.765773L0.313773 6.03505C0.228163 6.0692 0.153659 6.12635 0.0984888 6.20018C0.043319 6.27401 0.0096312 6.36166 0.00114666 6.45344C-0.00733788 6.54522 0.00971105 6.63755 0.0504102 6.72025C0.0911093 6.80295 0.153875 6.87279 0.231773 6.92205L0.641773 7.18205L0.642773 7.18405L5.63777 10.3621L8.81577 15.3571L8.81777 15.3591L9.07777 15.7691C9.1272 15.8466 9.19707 15.9091 9.27971 15.9495C9.36234 15.99 9.45453 16.0068 9.54613 15.9983C9.63773 15.9897 9.72519 15.956 9.79888 15.9009C9.87256 15.8458 9.92962 15.7715 9.96377 15.6861L15.9638 0.68605ZM14.1308 2.57605L6.63677 10.0701L6.42177 9.73205C6.38238 9.67003 6.3298 9.61744 6.26777 9.57805L5.92977 9.36305L13.4238 1.86905L14.6018 1.39805L14.1318 2.57605H14.1308Z" fill="black"/>
</g>
<defs>
<clipPath id="clip0_420_690">
<rect width="16" height="16" fill="white"/>
</clipPath>
</defs>
</svg>
